<?xml version="1.0" encoding="utf-8"?>
<!-- Generator: Adobe Illustrator 24.2.1, SVG Export Plug-In . SVG Version: 6.00 Build 0)  -->
<svg version="1.1" id="Layer_1" xmlns:v="https://vecta.io/nano"
	 xmlns="http://www.w3.org/2000/svg" xmlns:xlink="http://www.w3.org/1999/xlink" x="0px" y="0px" viewBox="0 0 198.4 198.4"
	 style="enable-background:new 0 0 198.4 198.4;" xml:space="preserve">
<style type="text/css">
	.st0{fill:#7B7D7C;}
	.st1{fill:#DA5725;}
</style>
<g>
	<path class="st0" d="M99.2,1.4C45.3,1.4,1.4,45.3,1.4,99.2S45.3,197,99.2,197S197,153.1,197,99.2C196.9,45.3,153.1,1.4,99.2,1.4z
		 M99.2,183.9c-46.7,0-84.8-38-84.8-84.8c0-46.7,38-84.8,84.8-84.8s84.8,38,84.8,84.8C183.9,145.9,145.9,183.9,99.2,183.9z"/>
	<path class="st1" d="M99.2,32c37.1,0,67.2,30.1,67.2,67.2s-30.1,67.2-67.2,67.2S32,136.3,32,99.2S62.1,32,99.2,32z"/>
</g>
</svg>
