<?xml version="1.0" standalone="no"?>
<!DOCTYPE svg PUBLIC "-//W3C//DTD SVG 1.1//EN" "http://www.w3.org/Graphics/SVG/1.1/DTD/svg11.dtd" >
<svg xmlns="http://www.w3.org/2000/svg">
<metadata>Generated by IcoMoon</metadata>
<defs>
<font id="portal-icons" horiz-adv-x="1024">
<font-face units-per-em="1024" ascent="960" descent="-64" />
<missing-glyph horiz-adv-x="1024" />
<glyph unicode="&#x20;" horiz-adv-x="512" d="" />
<glyph unicode="&#xe900;" glyph-name="users-group" d="M870.4 499.2c70.72 0 128 57.28 128 128s-57.28 128-128 128-128-57.28-128-128 57.28-128 128-128zM870.4 704c42.4 0 76.8-34.4 76.8-76.8s-34.4-76.8-76.8-76.8-76.8 34.4-76.8 76.8 34.4 76.8 76.8 76.8zM512 448c99.040 0 179.2 80.16 179.2 179.2s-80.16 179.2-179.2 179.2-179.2-80.16-179.2-179.2 80.16-179.2 179.2-179.2zM512 755.2c70.56 0 128-57.44 128-128s-57.44-128-128-128-128 57.44-128 128 57.44 128 128 128zM902.4 448h-64c-24.32 0-46.88-7.68-65.76-20.64 15.040-10.24 28.64-22.24 40.64-35.84 7.84 3.36 16.32 5.28 25.12 5.28h64c38.72 0 70.4-34.4 70.4-76.8 0-14.080 11.52-25.6 25.6-25.6s25.6 11.52 25.6 25.6c0 70.56-54.56 128-121.6 128zM153.6 499.2c70.72 0 128 57.28 128 128s-57.28 128-128 128-128-57.28-128-128 57.28-128 128-128zM153.6 704c42.4 0 76.8-34.4 76.8-76.8s-34.4-76.8-76.8-76.8-76.8 34.4-76.8 76.8 34.4 76.8 76.8 76.8zM640.16 416c-53.44 0-66.72-19.2-128.16-19.2s-74.72 19.2-128.16 19.2c-58.080 0-114.56-25.92-147.68-75.040-19.84-29.44-31.36-64.8-31.36-102.88v-71.68c0-42.4 34.4-76.8 76.8-76.8h460.8c42.4 0 76.8 34.4 76.8 76.8v71.68c0 38.080-11.52 73.44-31.36 102.88-33.12 49.12-89.6 75.040-147.68 75.040zM768 166.4c0-14.080-11.52-25.6-25.6-25.6h-460.8c-14.080 0-25.6 11.52-25.6 25.6v71.68c0 26.56 7.84 52.32 22.56 74.24 22.080 32.8 61.44 52.48 105.12 52.48 43.84 0 59.52-19.2 128.32-19.2s84.48 19.2 128.16 19.2c43.68 0 83.040-19.68 105.12-52.48 14.72-21.92 22.56-47.68 22.56-74.24v-71.68zM251.36 427.36c-19.040 12.96-41.6 20.64-65.76 20.64h-64c-67.040 0-121.6-57.44-121.6-128 0-14.080 11.52-25.6 25.6-25.6s25.6 11.52 25.6 25.6c0 42.4 31.68 76.8 70.4 76.8h64c8.8 0 17.28-1.92 25.12-5.28 12 13.6 25.76 25.6 40.64 35.84z" />
<glyph unicode="&#xe901;" glyph-name="calendar" horiz-adv-x="896" d="M800 832h-96v104c0 13.2-10.8 24-24 24h-80c-13.2 0-24-10.8-24-24v-104h-256v104c0 13.2-10.8 24-24 24h-80c-13.2 0-24-10.8-24-24v-104h-96c-53 0-96-43-96-96v-704c0-53 43-96 96-96h704c53 0 96 43 96 96v704c0 53-43 96-96 96zM788 32h-680c-6.6 0-12 5.4-12 12v596h704v-596c0-6.6-5.4-12-12-12z" />
<glyph unicode="&#xe902;" glyph-name="cart" d="M981.316 789.333h-751.485l-14.807 78.974c-3.785 20.18-21.404 34.803-41.936 34.803h-151.754c-11.781 0-21.333-9.552-21.333-21.333v-14.222c0-11.781 9.552-21.333 21.333-21.333h139.946l124.314-663.014c-18.386-20.21-29.595-47.065-29.595-76.54 0-62.837 50.94-113.778 113.778-113.778s113.778 50.94 113.778 113.778c0 0.037 0 0.082 0 0.125 0 20.906-5.667 40.488-15.548 57.294l0.289-0.531h258.074c-9.592-16.276-15.259-35.858-15.259-56.763 0-0.044 0-0.088 0-0.132v0.007c0-62.837 50.94-113.778 113.778-113.778s113.778 50.94 113.778 113.778c0 31.987-13.218 60.871-34.467 81.543-4.606 18.206-21.072 32.235-41.395 32.235h-526.307l-21.333 113.778h589.121c20.21 0 37.648 14.18 41.771 33.964l77.033 369.777c5.518 26.496-14.708 51.369-41.772 51.369zM426.666 106.667c0-31.369-25.52-56.889-56.889-56.889s-56.889 25.52-56.889 56.889 25.52 56.889 56.889 56.889 56.889-25.52 56.889-56.889zM824.887 49.778c-31.369 0-56.889 25.52-56.889 56.889s25.52 56.889 56.889 56.889 56.889-25.52 56.889-56.889-25.52-56.889-56.889-56.889zM892.72 391.111h-588.223l-64 341.333h723.334l-71.111-341.333z" />
<glyph unicode="&#xe903;" glyph-name="catalog" horiz-adv-x="896" d="M895.8 608c0 21.2-5.2 42-15.2 60.6l-98.2 183.8c-8.6 26-33 43.6-60.6 43.6h-547.6c-27.6 0-52-17.6-60.8-43.8l-98.2-183.8c-10-18.6-15.2-39.4-15.2-60.6 0.2-121 0-543.8 0-543.8 0-35.4 28.6-64 64-64h768c35.4 0 64 28.6 64 64 0 0-0.2 422.8-0.2 544zM721.8 832l101.6-192h-251.2l-24 192h173.6zM384 576h128v-128h-128v128zM483.8 832l24-192h-119.6l24 192h71.6zM174.2 832h173.6l-24-192h-251.2l101.6 192zM64 64s0.2 362.2 0.2 512h255.8v-128c0-35.4 28.6-64 64-64h128c35.4 0 64 28.6 64 64v128h255.8c0-149.8 0.2-512 0.2-512h-768z" />
<glyph unicode="&#xe904;" glyph-name="check-round" d="M1008 448c0-273.934-222.066-496-496-496s-496 222.066-496 496 222.066 496 496 496 496-222.066 496-496zM454.628 185.372l368 368c12.496 12.496 12.496 32.758 0 45.254l-45.254 45.254c-12.496 12.498-32.758 12.498-45.256 0l-300.118-300.116-140.118 140.118c-12.496 12.496-32.758 12.496-45.256 0l-45.254-45.254c-12.496-12.496-12.496-32.758 0-45.254l208-208c12.498-12.498 32.758-12.498 45.256-0.002z" />
<glyph unicode="&#xe905;" glyph-name="check-square" horiz-adv-x="896" d="M800 0h-704c-53.020 0-96 42.98-96 96v704c0 53.020 42.98 96 96 96h704c53.020 0 96-42.98 96-96v-704c0-53.020-42.98-96-96-96zM390.628 196.118l368 368c12.496 12.496 12.496 32.758 0 45.254l-45.254 45.254c-12.496 12.496-32.758 12.498-45.256 0l-300.118-300.116-140.118 140.118c-12.496 12.496-32.758 12.496-45.256 0l-45.254-45.254c-12.496-12.496-12.496-32.758 0-45.254l208-208c12.498-12.5 32.758-12.5 45.256-0.002z" />
<glyph unicode="&#xe906;" glyph-name="check" d="M347.796 81.192l-332.8 332.8c-19.994 19.994-19.994 52.412 0 72.408l72.406 72.408c19.994 19.996 52.414 19.996 72.408 0l224.19-224.188 480.19 480.188c19.994 19.994 52.414 19.994 72.408 0l72.406-72.408c19.994-19.994 19.994-52.412 0-72.408l-588.8-588.802c-19.996-19.994-52.414-19.994-72.408 0.002z" />
<glyph unicode="&#xe907;" glyph-name="chevron-down" d="M484.805 154.287l-473.526 469.686c-15.038 15.038-15.038 39.353 0 54.392l63.35 63.35c15.038 15.038 39.353 15.038 54.392 0l382.98-379.14 382.98 379.14c15.038 15.038 39.353 15.038 54.392 0l63.35-63.35c15.038-15.038 15.038-39.353 0-54.392l-473.526-469.686c-15.038-15.038-39.353-15.038-54.392 0z" />
<glyph unicode="&#xe908;" glyph-name="chevron-up" d="M539.2 741.76l473.6-469.76c15.040-15.040 15.040-39.36 0-54.4l-63.36-63.36c-15.040-15.040-39.36-15.040-54.4 0l-383.040 379.2-383.040-379.2c-15.040-15.040-39.36-15.040-54.4 0l-63.36 63.36c-15.040 15.040-15.040 39.36 0 54.4l473.6 469.76c15.040 15.040 39.36 15.040 54.4 0v0z" />
<glyph unicode="&#xe909;" glyph-name="close" d="M620.627 447.984l395.884 395.884c9.984 9.984 9.984 26.209 0 36.193l-72.418 72.418c-9.984 9.984-26.209 9.984-36.193 0l-395.884-395.884-395.884 395.916c-9.984 9.984-26.209 9.984-36.193 0l-72.45-72.418c-9.984-9.984-9.984-26.209 0-36.193l395.916-395.916-395.916-395.884c-9.984-9.984-9.984-26.209 0-36.193l72.418-72.418c9.984-9.984 26.209-9.984 36.193 0l395.916 395.884 395.884-395.884c9.984-9.984 26.209-9.984 36.193 0l72.418 72.418c9.984 9.984 9.984 26.209 0 36.193l-395.884 395.884z" />
<glyph unicode="&#xe90a;" glyph-name="edit-2" d="M742.756 342.222l35.556 35.556c6.756 6.756 18.133 1.956 18.133-7.467v-292.089c0-47.111-38.222-85.333-85.333-85.333h-625.778c-47.111 0-85.333 38.222-85.333 85.333v625.778c0 47.111 38.222 85.333 85.333 85.333h519.644c9.422 0 14.222-11.556 7.467-18.133l-35.556-35.556c-1.956-1.956-4.8-3.2-7.467-3.2h-484.089c-15.644 0-28.444-12.8-28.444-28.444v-625.778c0-15.644 12.8-28.444 28.444-28.444h625.778c15.644 0 28.444 12.8 28.444 28.444v256.533c0 2.844 1.067 5.511 3.2 7.467zM1002.134 682.133l-555.557-555.557-177.6-19.733c-23.822-2.667-43.911 17.422-41.244 41.244l19.733 177.6 555.557 555.557c29.156 29.156 76.444 29.156 105.6 0l93.511-93.511c29.156-29.156 29.156-76.444 0-105.6zM835.733 596.089l-118.578 118.578-415.289-415.111-14.756-133.511 133.511 14.756 415.111 415.289zM961.956 747.556l-93.511 93.511c-6.756 6.756-18.133 7.111-25.067 0l-86.044-86.044 118.578-118.578 86.044 86.044c6.933 6.756 6.933 18.133 0 25.067z" />
<glyph unicode="&#xe90b;" glyph-name="ellipsis-h-alt" d="M512 596.645c-82.168 0-148.645-66.477-148.645-148.645s66.477-148.645 148.645-148.645 148.645 66.477 148.645 148.645-66.477 148.645-148.645 148.645zM512 365.419c-45.626 0-82.581 36.955-82.581 82.581s36.955 82.581 82.581 82.581 82.581-36.955 82.581-82.581-36.955-82.581-82.581-82.581zM875.355 596.645c-82.168 0-148.645-66.477-148.645-148.645s66.477-148.645 148.645-148.645 148.645 66.477 148.645 148.645-66.477 148.645-148.645 148.645zM875.355 365.419c-45.626 0-82.581 36.955-82.581 82.581s36.955 82.581 82.581 82.581 82.581-36.955 82.581-82.581-36.955-82.581-82.581-82.581zM148.645 596.645c-82.168 0-148.645-66.477-148.645-148.645s66.477-148.645 148.645-148.645 148.645 66.477 148.645 148.645-66.477 148.645-148.645 148.645zM148.645 365.419c-45.626 0-82.581 36.955-82.581 82.581s36.955 82.581 82.581 82.581 82.581-36.955 82.581-82.581-36.955-82.581-82.581-82.581z" />
<glyph unicode="&#xe90c;" glyph-name="ellipsis-h" d="M660.645 448c0-82.168-66.477-148.645-148.645-148.645s-148.645 66.477-148.645 148.645 66.477 148.645 148.645 148.645 148.645-66.477 148.645-148.645zM875.355 596.645c-82.168 0-148.645-66.477-148.645-148.645s66.477-148.645 148.645-148.645 148.645 66.477 148.645 148.645-66.477 148.645-148.645 148.645zM148.645 596.645c-82.168 0-148.645-66.477-148.645-148.645s66.477-148.645 148.645-148.645 148.645 66.477 148.645 148.645-66.477 148.645-148.645 148.645z" />
<glyph unicode="&#xe90d;" glyph-name="ellipsis-v-alt" d="M512 662.71c82.168 0 148.645 66.477 148.645 148.645s-66.477 148.645-148.645 148.645-148.645-66.477-148.645-148.645 66.477-148.645 148.645-148.645zM512 893.935c45.626 0 82.581-36.955 82.581-82.581s-36.955-82.581-82.581-82.581-82.581 36.955-82.581 82.581 36.955 82.581 82.581 82.581zM512 596.645c-82.168 0-148.645-66.477-148.645-148.645s66.477-148.645 148.645-148.645 148.645 66.477 148.645 148.645-66.477 148.645-148.645 148.645zM512 365.419c-45.626 0-82.581 36.955-82.581 82.581s36.955 82.581 82.581 82.581 82.581-36.955 82.581-82.581-36.955-82.581-82.581-82.581zM512 233.29c-82.168 0-148.645-66.477-148.645-148.645s66.477-148.645 148.645-148.645 148.645 66.477 148.645 148.645-66.477 148.645-148.645 148.645zM512 2.065c-45.626 0-82.581 36.955-82.581 82.581s36.955 82.581 82.581 82.581 82.581-36.955 82.581-82.581-36.955-82.581-82.581-82.581z" />
<glyph unicode="&#xe90e;" glyph-name="ellipsis-v" d="M512 596.645c82.168 0 148.645-66.477 148.645-148.645s-66.477-148.645-148.645-148.645-148.645 66.477-148.645 148.645 66.477 148.645 148.645 148.645zM363.355 811.355c0-82.168 66.477-148.645 148.645-148.645s148.645 66.477 148.645 148.645-66.477 148.645-148.645 148.645-148.645-66.477-148.645-148.645zM363.355 84.645c0-82.168 66.477-148.645 148.645-148.645s148.645 66.477 148.645 148.645-66.477 148.645-148.645 148.645-148.645-66.477-148.645-148.645z" />
<glyph unicode="&#xe90f;" glyph-name="email-open" d="M698.64 855.479c-42.084 33.53-112.764 104.52-186.64 104.52-73.33 0-142.892-69.538-186.62-104.52-69.172-54.91-219.050-175.796-290.194-234.030-21.55-17.736-35.186-44.411-35.186-74.271 0-0.004 0-0.007 0-0.011v0.001-515.168c0-53.020 42.98-96 96-96h832c53.020 0 96 42.98 96 96v515.174c0 0.003 0 0.007 0 0.011 0 29.864-13.639 56.542-35.028 74.145l-0.166 0.132c-71.142 58.224-220.994 179.108-290.166 234.018zM928-0.001h-832c-17.674 0-32 14.326-32 32v515.678c0 9.612 4.31 18.706 11.756 24.784 52.564 42.908 243.56 196.486 289.424 232.898 35.242 28.1 99.454 90.64 146.82 90.64 47.372 0 111.578-62.54 146.82-90.64 45.864-36.414 236.872-190.016 289.428-232.936 7.197-5.91 11.752-14.808 11.752-24.77 0-0.004 0-0.007 0-0.011v0.001-515.644c0-17.674-14.326-32-32-32zM910.494 432.623c8.378-10.312 6.786-25.464-3.552-33.81-45.654-36.852-110.27-88.472-208.312-166.296-42.090-33.6-113.742-105.036-186.636-104.516-73.16-0.528-145.652 71.816-186.636 104.526-98.030 77.816-162.642 129.432-208.298 166.286-10.338 8.346-11.932 23.498-3.552 33.81l10.094 12.424c8.338 10.262 23.408 11.85 33.696 3.544 45.526-36.752 110.028-88.286 207.876-165.956 33.7-26.874 100.402-91.38 146.826-90.63 46.438-0.742 113.124 63.754 146.826 90.63 97.858 77.678 162.356 129.21 207.876 165.956 10.29 8.306 25.358 6.718 33.696-3.544l10.096-12.424z" />
<glyph unicode="&#xe910;" glyph-name="email" d="M928 832h-832c-53 0-96-43-96-96v-576c0-53 43-96 96-96h832c53 0 96 43 96 96v576c0 53-43 96-96 96zM96 768h832c17.6 0 32-14.4 32-32v-82.8c-43.8-37-106.4-88-301.2-242.6-33.8-26.8-100.4-91.4-146.8-90.6-46.4-0.8-113.2 63.8-146.8 90.6-194.8 154.6-257.4 205.6-301.2 242.6v82.8c0 17.6 14.4 32 32 32zM928 128h-832c-17.6 0-32 14.4-32 32v410c45.6-37.4 117.6-95.2 261.4-209.4 41-32.8 113.4-105 186.6-104.6 72.8-0.6 144.6 71 186.6 104.6 143.8 114.2 215.8 172 261.4 209.4v-410c0-17.6-14.4-32-32-32z" />
<glyph unicode="&#xe911;" glyph-name="minus" d="M981.333 533.333h-938.667c-23.573 0-42.667-19.093-42.667-42.667v-85.333c0-23.573 19.093-42.667 42.667-42.667h938.667c23.573 0 42.667 19.093 42.667 42.667v85.333c0 23.573-19.093 42.667-42.667 42.667z" />
<glyph unicode="&#xe912;" glyph-name="paper-plane" d="M927.972 951.347l-895.957-516.775c-45.998-26.599-41.398-94.395 7.6-114.595l280.387-115.994v-203.99c0-60.397 75.596-86.596 113.395-40.598l121.394 147.593 252.788-104.395c38.198-15.799 81.396 8.4 87.596 49.398l127.994 834.16c8.2 53.397-49.198 91.796-95.195 65.197zM383.998-0.008v177.592l108.995-44.998-108.995-132.594zM831.977 61.789l-412.38 170.392 398.981 471.578c9.6 11.199-5.8 26.399-16.999 16.799l-510.576-435.179-226.989 93.596 895.957 516.975-127.994-834.16z" />
<glyph unicode="&#xe913;" glyph-name="phone" d="M975.6 911.8l-201.6 46.6c-29.4 6.8-59.6-8.4-71.6-36.2l-93-217c-11-25.4-3.6-55.4 17.8-73l107.8-88.2c-68-138.4-180.6-251.2-319.2-319.2l-88.2 107.8c-17.6 21.4-47.6 28.8-73 17.8l-216.8-93c-27.8-12-43-42-36.2-71.4l46.4-201.4c6.6-28.6 31.8-48.6 61-48.6 504.4 0 915 408.4 915 915 0 29.2-20 54.4-48.4 60.8zM110.2 0l-46 199.2 214.8 92 119-145.6c207.2 97.2 319.4 209.8 416.2 416.2l-145.6 119 92 214.8 199.2-46c-0.4-469-380.6-849-849.6-849.6z" />
<glyph unicode="&#xe914;" glyph-name="plus" d="M1002.667 512h-426.667v426.667c0 11.787-9.547 21.333-21.333 21.333h-85.333c-11.787 0-21.333-9.547-21.333-21.333v-426.667h-426.667c-11.787 0-21.333-9.547-21.333-21.333v-85.333c0-11.787 9.547-21.333 21.333-21.333h426.667v-426.667c0-11.787 9.547-21.333 21.333-21.333h85.333c11.787 0 21.333 9.547 21.333 21.333v426.667h426.667c11.787 0 21.333 9.547 21.333 21.333v85.333c0 11.787-9.547 21.333-21.333 21.333z" />
<glyph unicode="&#xe915;" glyph-name="proposals" d="M1004.926 751.078l-81.194 81.194c-25.398 25.198-66.595 25.198-91.793 0l-62.395-62.395c-6.4-6.4-6.4-16.599 0-22.998l150.189-150.189c6.4-6.4 16.599-6.4 22.998 0l62.395 62.395c25.198 25.598 25.198 66.795-0.2 91.993zM738.945 716.48c-3.2 3.2-7.199 4.6-11.399 4.8-4.6 10.799-11.199 20.798-19.599 29.198l-160.588 160.588c-17.199 17.199-40.597 26.998-64.795 26.998h-390.771c-50.596-0.2-91.793-41.397-91.793-92.193v-796.142c0-50.796 41.197-91.793 91.793-91.793h551.16c50.796 0 91.793 41.197 91.793 91.793v339.575l154.189 154.189c6.4 6.4 6.4 16.599 0 22.998l-149.989 149.989zM489.964 875.669c5.4-1.4 10.199-4 14.199-7.999l160.588-160.588c4-4 6.6-8.799 7.999-14.199h-182.787v182.787zM673.75 49.729c0-16.799-13.799-30.598-30.598-30.598h-551.36c-16.799 0-30.598 13.799-30.598 30.598v796.142c0 16.799 13.799 30.598 30.598 30.598h336.775v-198.985c0-25.398 20.399-45.997 45.997-45.997h156.189l-269.98-270.18-28.798-164.188c-4-22.198 15.399-41.397 37.597-37.597l164.388 28.798 139.79 139.79v-278.38zM515.362 278.112v-48.996l-87.194-15.199-41.997 41.997 15.199 87.194h48.996v-64.995h64.995z" />
<glyph unicode="&#xe916;" glyph-name="search" d="M1016.95 22.246l-242.788 242.788c-4.6 4.6-10.599 7-16.999 7h-26.399c62.997 72.996 101.195 167.992 101.195 271.987 0 229.789-186.191 415.98-415.98 415.98s-415.98-186.191-415.98-415.98 186.191-415.98 415.98-415.98c103.995 0 198.99 38.198 271.987 101.195v-26.399c0-6.4 2.6-12.399 7-16.999l242.788-242.788c9.4-9.4 24.599-9.4 33.998 0l45.198 45.198c9.4 9.4 9.4 24.599 0 33.998zM415.98 224.036c-176.791 0-319.984 143.193-319.984 319.984s143.193 319.984 319.984 319.984 319.984-143.193 319.984-319.984-143.193-319.984-319.984-319.984z" />
<glyph unicode="&#xe917;" glyph-name="sort-amount-down" d="M1004.6 815.2h-985.2c-10.8 0-19.4-8.8-19.4-19.4v-39c0-10.8 8.8-19.4 19.4-19.4h985c10.8 0 19.4 8.8 19.4 19.4v39c0.2 10.8-8.6 19.4-19.2 19.4zM688.4 487h-669c-10.8 0-19.4-8.8-19.4-19.4v-39c0-10.8 8.8-19.4 19.4-19.4h668.8c10.8 0 19.4 8.8 19.4 19.4v39c0.2 10.6-8.6 19.4-19.2 19.4zM306.4 158.6h-287c-10.8 0-19.4-8.8-19.4-19.4v-39c0-10.8 8.8-19.4 19.4-19.4h287c10.8 0 19.4 8.8 19.4 19.4v39c0.2 10.6-8.6 19.4-19.4 19.4z" />
<glyph unicode="&#xe918;" glyph-name="sort-amount-up" d="M1023.8 100.2v39c0 10.6-8.6 19.4-19.4 19.4h-985c-10.6 0-19.4-8.6-19.4-19.4v-39c0-10.6 8.6-19.4 19.4-19.4h985.2c10.6 0 19.4 8.6 19.2 19.4zM707.6 428.4v39c0 10.6-8.6 19.4-19.4 19.4h-668.8c-10.6 0-19.4-8.6-19.4-19.4v-39c0-10.6 8.6-19.4 19.4-19.4h669c10.6 0 19.4 8.8 19.2 19.4zM325.8 756.8v39c0 10.6-8.6 19.4-19.4 19.4h-287c-10.6 0-19.4-8.6-19.4-19.4v-39c0-10.6 8.6-19.4 19.4-19.4h287c10.8 0 19.6 8.8 19.4 19.4z" />
<glyph unicode="&#xe919;" glyph-name="trash" d="M944 832h-208l-67.2 89.6c-17.7 23.421-45.501 38.4-76.8 38.4v0h-160c-31.299 0-59.1-14.979-76.625-38.159l-0.175-0.241-67.2-89.6h-208c-8.837 0-16-7.163-16-16v0-32c0-8.837 7.163-16 16-16v0h37.8l66.4-744.6c4.555-49.183 45.614-87.392 95.599-87.4h464.401c49.986 0.008 91.045 38.217 95.572 87.021l0.028 0.379 66.4 744.6h37.8c8.837 0 16 7.163 16 16v0 32c0 8.837-7.163 16-16 16v0zM406.4 883.2c5.92 7.784 15.174 12.767 25.595 12.8h160.005c10.426-0.033 19.68-5.016 25.542-12.721l0.058-0.079 38.4-51.2h-288zM776 29.2c-1.396-16.41-15.060-29.2-31.712-29.2-0.031 0-0.062 0-0.093 0h-464.395c-0.026 0-0.057 0-0.088 0-16.652 0-30.316 12.79-31.704 29.083l-0.008 0.118-66 738.8h660z" />
<glyph unicode="&#xe91a;" glyph-name="usd-circle" horiz-adv-x="992" d="M496 944c-274 0-496-222-496-496s222-496 496-496 496 222 496 496-222 496-496 496zM496 16c-238.2 0-432 193.8-432 432s193.8 432 432 432 432-193.8 432-432-193.8-432-432-432zM576.6 458.6l-144 40.4c-24.2 6.8-41.2 28.8-41.2 53.4 0 30.6 25.6 55.6 57 55.6h90c22.4 0 43.8-7.2 61.2-20.2 6.4-4.8 15.2-4 20.8 1.6l22.6 23c6.8 6.8 6 18-1.6 24-29.2 23.2-65.2 35.8-103.2 35.8h-10.2v80c0 8.8-7.2 16-16 16h-32c-8.8 0-16-7.2-16-16v-80h-15.6c-66.6 0-121-53.6-121-119.6 0-53.2 36.2-100.4 87.8-115l144-40.4c24.2-6.8 41.2-28.8 41.2-53.4 0-30.6-25.6-55.6-57-55.6h-90c-22.4 0-43.8 7.2-61.2 20.2-6.4 4.8-15.2 4-20.8-1.6l-22.6-23c-6.8-6.8-6-18 1.6-24 29.2-23.2 65.2-35.8 103.2-35.8h10.4v-80c0-8.8 7.2-16 16-16h32c8.8 0 16 7.2 16 16v80h15.6c66.6 0 121 53.6 121 119.6-0.2 53.2-36.2 100.4-88 115z" />
</font>
</defs>
</svg>
